# xmcd
#
# Track frame offsets: 
#        150
#        33610
#        57209
#        85020
#        122073
#        151235
#        175626
#
# Disc length: 2806 seconds
#
# Revision: 0
# Processed by: cddbd v1.5.2PL0 Copyright (c) Steve Scherf et al.
# Submitted via: ExactAudioCopyFreeDBPlugin 1.0
#
DISCID=4c0af407
DTITLE=Hammers of Misfortune - Dead Revolution
DYEAR=2016
DGENRE=Progressive Metal
TTITLE0=The Velvet Inquisition
TTITLE1=Dead Revolution
TTITLE2=Sea of Heroes
TTITLE3=The Precipice (waiting for the crash...)
TTITLE4=Here Comes the Sky
TTITLE5=Flying Alone
TTITLE6=Days of '49
EXTD=
EXTT0=
EXTT1=
EXTT2=
EXTT3=
EXTT4=
EXTT5=
EXTT6=
PLAYORDER=
